<svg width="51" height="80" viewBox="0 0 51 80" fill="none" xmlns="http://www.w3.org/2000/svg">
<g clip-path="url(#clip0_6_134)">
<path d="M48.7387 47.9708L48.7503 47.9824L48.762 47.9939C48.9958 48.222 49.0314 48.3576 49.0393 48.3967C49.0468 48.4339 49.0661 48.5641 48.9428 48.8493L48.9392 48.8577L48.9356 48.8661C48.8003 49.1874 48.6741 49.2946 48.6206 49.3311C48.5729 49.3637 48.456 49.4286 48.1667 49.4286H31.2552H28.2494L29.4104 52.2011L38.3002 73.4303C38.4054 73.7029 38.3928 73.8905 38.3052 74.1023C38.2071 74.3398 38.0734 74.4864 37.8303 74.6032L30.0491 77.9281C29.7896 78.0296 29.6172 78.0166 29.418 77.9329C29.1909 77.8375 29.0439 77.7055 28.9245 77.453L20.4826 57.3074L19.3257 54.5466L17.2179 56.6721L3.4054 70.6006C3.20431 70.8034 3.04523 70.8571 2.83333 70.8571C2.76804 70.8571 2.67815 70.845 2.55143 70.7925C2.24454 70.6598 2.14022 70.5363 2.10247 70.4801C2.06693 70.4272 2 70.3011 2 70V2.85714C2 2.556 2.06693 2.42991 2.10247 2.37704C2.14023 2.32088 2.24453 2.19735 2.55156 2.06457C2.67822 2.01213 2.76807 2 2.83333 2C3.09501 2 3.22606 2.06667 3.36788 2.21763L3.38638 2.23732L3.4054 2.2565L48.7387 47.9708Z" fill="white" stroke="black" stroke-width="4"/>
</g>
<defs>
<clipPath id="clip0_6_134">
<rect width="51" height="80" fill="white"/>
</clipPath>
</defs>
</svg>
